<?xml version="1.0" encoding="UTF-8" standalone="no"?>
<!DOCTYPE svg PUBLIC "-//W3C//DTD SVG 1.1//EN" "http://www.w3.org/Graphics/SVG/1.1/DTD/svg11.dtd">
<svg version="1.1" xmlns="http://www.w3.org/2000/svg" xmlns:xlink="http://www.w3.org/1999/xlink" preserveAspectRatio="xMidYMid meet" viewBox="0 0 84 84" width="84" height="84"><defs><path d="M62.59 62.42L57.3 49.7L52 62.42L40.01 62.42L18.29 10.22L30.42 10.22L46.01 47.69L51.23 35.12L40.87 10.22L53 10.22L57.3 20.55L61.6 10.22L73.72 10.22L63.36 35.12L68.59 47.69L84.18 10.22C84.18 6.75 84.18 4.82 84.18 4.43C84.17 1.99 82.19 0.01 79.75 0C72.21 0 11.96 0 4.43 0C1.98 0.01 0 2 0 4.45C0 5.15 0 8.64 0 14.92L0 21.31L0 79.73L0 79.75C0 79.75 0 79.75 0 79.75C0.01 82.19 2 84.18 4.45 84.18C11.98 84.18 72.2 84.18 79.73 84.18C82.18 84.18 84.17 82.19 84.18 79.75C84.18 77.05 84.18 63.59 84.18 39.37L74.58 62.42L62.59 62.42Z" id="e1Cz4ul7oG"></path><path d="M73.72 10.22L61.6 10.22L57.3 20.55L53 10.22L40.87 10.22L51.23 35.12L46.01 47.69L30.42 10.22L18.29 10.22L39.94 62.26L40.01 62.42L52 62.42L57.3 49.7L62.59 62.42L74.58 62.42L84.18 39.37L84.18 11.55L84.18 10.22L68.59 47.69L63.36 35.12L73.72 10.22Z" id="a1l1nhwEf8"></path></defs><g><g><g><use xlink:href="#e1Cz4ul7oG" opacity="1" fill="#00a4bb" fill-opacity="1"></use><g><use xlink:href="#e1Cz4ul7oG" opacity="1" fill-opacity="0" stroke="#000000" stroke-width="1" stroke-opacity="0"></use></g></g><g><use xlink:href="#a1l1nhwEf8" opacity="1" fill="#ffffff" fill-opacity="1"></use><g><use xlink:href="#a1l1nhwEf8" opacity="1" fill-opacity="0" stroke="#000000" stroke-width="1" stroke-opacity="0"></use></g></g></g></g></svg>